<?xml version="1.0" encoding="UTF-8"?>
<svg width="50px" height="54px" viewBox="0 0 50 54" version="1.1" xmlns="http://www.w3.org/2000/svg" xmlns:xlink="http://www.w3.org/1999/xlink">
    <!-- Generator: Sketch 52.1 (67048) - http://www.bohemiancoding.com/sketch -->
    <title>CRM 2</title>
    <desc>Created with Sketch.</desc>
    <g id="Symbols" stroke="none" stroke-width="1" fill="none" fill-rule="evenodd">
        <g id="CRM-3" transform="translate(2.000000, 2.000000)" fill-rule="nonzero">
            <g id="CRM-2" transform="translate(-1.000000, -2.000000)">
                <g id="bottom-arrow" transform="translate(34.000000, 40.500000) rotate(180.000000) translate(-34.000000, -40.500000) translate(20.000000, 27.000000)" stroke="#EF4F4A" stroke-linecap="round" stroke-linejoin="round">
                    <path d="M23.8518519,3.11538462 C10.6788378,3.11538462 0,13.8088912 0,27" id="Oval" stroke-width="2"></path>
                    <polygon id="Triangle" fill="#EF4F4A" transform="translate(25.925926, 3.115385) rotate(90.000000) translate(-25.925926, -3.115385) " points="25.9259259 1.04131054 28.5220798 5.18945869 23.3297721 5.18945869"></polygon>
                </g>
                <g id="top-arrow" stroke-linecap="round" stroke-linejoin="round">
                    <path d="M23.8518519,3.11538462 C10.6788378,3.11538462 0,13.8088912 0,27" id="Oval" stroke="#F15953" stroke-width="2"></path>
                    <polygon id="Triangle" stroke="#EF4F4A" fill="#EF4F4A" transform="translate(25.925926, 3.115385) rotate(90.000000) translate(-25.925926, -3.115385) " points="25.9259259 1.04131054 28.5220798 5.18945869 23.3297721 5.18945869"></polygon>
                </g>
                <circle id="big-head" stroke="#EF4F4A" stroke-width="2" cx="24" cy="20" r="5"></circle>
                <circle id="small-head-(R)" stroke="#EF4F4A" stroke-width="2" cx="38" cy="20" r="3"></circle>
                <circle id="small-head-(L)" stroke="#EF4F4A" stroke-width="2" cx="10" cy="20" r="3"></circle>
                <path d="M20.7047475,28.0171349 C20.2737767,28.0435607 19.8430177,28.0751626 19.4124298,28.1119494 C16.6342897,28.3490822 14.5,30.6733087 14.5,33.4615508 L14.5,37 C14.5,37.5522847 14.9477153,38 15.5,38 L32.5,38 C33.0522847,38 33.5,37.5522847 33.5,37 L33.5,33.4615508 C33.5,30.6733124 31.3657116,28.3490757 28.5875738,28.1119074 C28.1567897,28.0751371 27.7260166,28.0435463 27.295253,28.0171346 C26.3152514,28.6052965 25.1809403,28.9231016 24,28.9231016 C22.8190599,28.9231016 21.684749,28.6052966 20.7047475,28.0171349 Z" id="Combined-Shape" stroke="#EF4F4A" stroke-width="2"></path>
                <path d="M8.55327948,27.0512241 L8.55327768,27.0511987 C7.11487276,27.1530519 6,28.3496601 6,29.7916667 L6,31 C6,31.5522847 6.44771525,32 7,32 L13,32 C13.5522847,32 14,31.5522847 14,31 L14,29.7916667 C14,28.3496593 12.8851289,27.1530589 11.4467205,27.0512241 C10.9644289,27.0170732 10.4822033,27 10,27 C9.51779667,27 9.03557113,27.0170732 8.55327948,27.0512241 Z" id="Combined-Shape-Copy" stroke="#EF4F4A" stroke-width="2"></path>
                <path d="M36.5532795,27.0512241 L36.5532777,27.0511987 C35.1148728,27.1530519 34,28.3496601 34,29.7916667 L34,31 C34,31.5522847 34.4477153,32 35,32 L41,32 C41.5522847,32 42,31.5522847 42,31 L42,29.7916667 C42,28.3496593 40.8851289,27.1530589 39.4467205,27.0512241 C38.9644289,27.0170732 38.4822033,27 38,27 C37.5177967,27 37.0355711,27.0170732 36.5532795,27.0512241 Z" id="Combined-Shape-Copy-2" stroke="#EF4F4A" stroke-width="2"></path>
            </g>
        </g>
    </g>
</svg>