<?xml version="1.0" encoding="UTF-8"?>
<svg width="52px" height="52px" viewBox="0 0 52 52" version="1.1" xmlns="http://www.w3.org/2000/svg" xmlns:xlink="http://www.w3.org/1999/xlink">
    <!-- Generator: Sketch 52.1 (67048) - http://www.bohemiancoding.com/sketch -->
    <title>Gear Settings Icon</title>
    <desc>Created with Sketch.</desc>
    <g id="Symbols" stroke="none" stroke-width="1" fill="none" fill-rule="evenodd" stroke-linecap="round" stroke-linejoin="round">
        <g id="Gear-(Customize)" stroke="#EF4F4A" stroke-width="2">
            <path d="M31.8963257,8.26003687 C32.8442018,8.57178527 33.7586412,8.95720179 34.63287,9.40951266 L40.650515,5.22211916 L46.6496706,11.2212748 L42.5201083,17.1558113 C43.1325008,18.2886325 43.6314729,19.491765 44.0018056,20.7499895 L51,22.0051005 L51,30.4891877 L43.869518,31.7680242 C43.5300086,32.8261481 43.098898,33.8432451 42.5855203,34.8099811 L46.6496706,40.650515 L40.650515,46.6496706 L34.8099811,42.5855203 C33.8432451,43.098898 32.8261481,43.5300086 31.7680242,43.869518 L30.4891877,51 L22.0051005,51 L20.7499895,44.0018056 C19.491765,43.6314729 18.2886325,43.1325008 17.1558113,42.5201083 L11.2212748,46.6496706 L5.22211916,40.650515 L9.40951266,34.63287 C8.93947855,33.7243856 8.54168385,32.7724778 8.22373019,31.784748 L1,30.4891877 L1,22.0051005 L8.09097393,20.7333497 C8.44165478,19.5459896 8.90692173,18.4077884 9.47397013,17.3315507 L5.22211916,11.2212748 L11.2212748,5.22211916 L17.3315507,9.47397013 C18.4128149,8.90427335 19.5566228,8.43731097 20.7499895,8.0860679 L22.0208604,1 L30.5942538,1 L31.8963257,8.26003687 Z M26.0439367,35.5342707 C31.2853034,35.5342707 35.5342707,31.2853034 35.5342707,26.0439367 C35.5342707,20.80257 31.2853034,16.5536028 26.0439367,16.5536028 C20.80257,16.5536028 16.5536028,20.80257 16.5536028,26.0439367 C16.5536028,31.2853034 20.80257,35.5342707 26.0439367,35.5342707 Z" id="Gear-Settings-Icon"></path>
        </g>
    </g>
</svg>