<?xml version="1.0" encoding="UTF-8"?>
<svg width="53px" height="41px" viewBox="0 0 53 41" version="1.1" xmlns="http://www.w3.org/2000/svg" xmlns:xlink="http://www.w3.org/1999/xlink">
    <!-- Generator: Sketch 52.1 (67048) - http://www.bohemiancoding.com/sketch -->
    <title>Graduation cap</title>
    <desc>Created with Sketch.</desc>
    <g id="Symbols" stroke="none" stroke-width="1" fill="none" fill-rule="evenodd">
        <g id="Graduation-cap" fill-rule="nonzero">
            <g>
                <path d="M47.5,17.5079086 L47.5,38.9932353" id="rope" stroke="#EF4F4A" stroke-width="2" stroke-linecap="round" stroke-linejoin="round"></path>
                <path d="M47.9743416,33.4230249 L50.2806287,40.3418861 C50.3679526,40.6038578 50.2263726,40.8870178 49.9644009,40.9743416 C49.9134177,40.9913361 49.8600281,41 49.8062871,41 L45.1937129,41 C44.9175706,41 44.6937129,40.7761424 44.6937129,40.5 C44.6937129,40.446259 44.7023769,40.3928694 44.7193713,40.3418861 L47.0256584,33.4230249 C47.1129822,33.1610533 47.3961422,33.0194733 47.6581139,33.1067972 C47.8074164,33.1565647 47.9245741,33.2737224 47.9743416,33.4230249 Z" id="tassle" fill="#EF4F4A"></path>
                <path d="M42.0000038,19.7809181 L27.0853714,27.9748493 C26.4653913,28.3154593 25.6994367,28.3154593 25.0794566,27.9748493 L10,19.6903655 L10,29.9644569 C10,32.7869773 11.6951494,35.3333653 14.2991079,36.4224143 C18.2082323,38.057312 22.1064161,38.872473 26,38.872473 C29.8935823,38.872473 33.7917644,38.0573127 37.7008871,36.4224164 C40.3048509,35.3333713 42.0000035,32.7869816 42.000004,29.9644569 L42.0000038,19.7809181 Z" id="bottom-of-hat" stroke="#EF4F4A" stroke-width="2"></path>
                <path d="M1.15922537,14.6789169 L26.0424714,28.3494922 C26.062716,28.3606144 26.102112,28.3606144 26.1223567,28.3494922 L51.0056027,14.6789169 L26.1223567,1.00834163 C26.102112,0.997219457 26.062716,0.997219457 26.0424714,1.00834163 L1.15922537,14.6789169 Z" id="top-of-hat" stroke="#EF4F4A" stroke-width="2"></path>
            </g>
        </g>
    </g>
</svg>