<svg id="Layer_1" data-name="Layer 1" xmlns="http://www.w3.org/2000/svg" viewBox="0 0 131.33 43.37"><defs><style>.cls-1{fill:#fff;}</style></defs><title>Sm-White-Elevate</title><g id="Layer_2" data-name="Layer 2"><g id="Layer_2-2" data-name="Layer 2-2"><path class="cls-1" d="M6.4,31.48a10,10,0,0,1,0-14.23A10.15,10.15,0,0,1,9.63,15.1a9.94,9.94,0,0,1,3.95-.81,10.12,10.12,0,0,1,9.31,6.16,9.84,9.84,0,0,1,.81,3.93A1.64,1.64,0,0,1,22,26H7a6.51,6.51,0,0,0,2.4,3.58,6.69,6.69,0,0,0,4.2,1.45,7.29,7.29,0,0,0,5.73-2.27,1.52,1.52,0,0,1,1.14-.55,1.64,1.64,0,0,1,1.22.4A1.67,1.67,0,0,1,21.81,31h0a10.39,10.39,0,0,1-8.21,3.39A9.82,9.82,0,0,1,6.4,31.48m13.74-8.76A6.79,6.79,0,0,0,7,22.72Z"/><path class="cls-1" d="M28.43,1.23a1.6,1.6,0,0,1,1.15.48,1.62,1.62,0,0,1,.49,1.18V32.77a1.66,1.66,0,0,1-1.66,1.66,1.72,1.72,0,0,1-1.2-.48,1.59,1.59,0,0,1-.48-1.18V2.91a1.58,1.58,0,0,1,.48-1.18,1.64,1.64,0,0,1,1.22-.5"/><path class="cls-1" d="M36.07,31.48a10.1,10.1,0,0,1,7.17-17.19,9.78,9.78,0,0,1,7.16,3,10.21,10.21,0,0,1,2.16,3.2,9.83,9.83,0,0,1,.8,3.93,1.59,1.59,0,0,1-.48,1.18,1.62,1.62,0,0,1-1.2.48h-15a6.52,6.52,0,0,0,2.41,3.58,6.65,6.65,0,0,0,4.19,1.45A7.26,7.26,0,0,0,49,28.8a1.55,1.55,0,0,1,1.15-.55,1.62,1.62,0,0,1,1.21.4A1.66,1.66,0,0,1,51.48,31l0,0a10.39,10.39,0,0,1-8.21,3.39,9.85,9.85,0,0,1-7.17-2.94m13.74-8.76a6.79,6.79,0,0,0-13.16,0Z"/><path class="cls-1" d="M73.35,5.55a1.46,1.46,0,0,1,0,1.29L65.26,23.65a2,2,0,0,1-2.74.73,2,2,0,0,1-.73-.73L53.71,6.85a1.5,1.5,0,0,1-.17-.66,1.48,1.48,0,0,1,.14-.62,1.78,1.78,0,0,1,1-.91,2,2,0,0,1,.73-.14,2.06,2.06,0,0,1,.7.12,1.77,1.77,0,0,1,1,.91l6.34,13.17L69.86,5.55a1.78,1.78,0,0,1,1-.89,2.16,2.16,0,0,1,.71-.12,2.11,2.11,0,0,1,.74.14,1.68,1.68,0,0,1,1,.87"/><path class="cls-1" d="M92,14.3a1.55,1.55,0,0,1,1.18.48A1.61,1.61,0,0,1,93.62,16V32.77A1.67,1.67,0,0,1,90.78,34a1.59,1.59,0,0,1-.48-1.18v-.88a9.9,9.9,0,0,1-16.46-7.51A9.92,9.92,0,0,1,90.3,16.83V16A1.69,1.69,0,0,1,92,14.3M83.73,31.09a6.28,6.28,0,0,0,4.65-2,6.9,6.9,0,0,0,0-9.52,6.48,6.48,0,0,0-9.15-.14l-.14.14a6.84,6.84,0,0,0,0,9.52,6.28,6.28,0,0,0,4.65,2"/><path class="cls-1" d="M105.81,14.3a1.54,1.54,0,0,1,1.18.48,1.68,1.68,0,0,1,0,2.35,1.54,1.54,0,0,1-1.18.48h-2.6V32.77A1.68,1.68,0,0,1,100.37,34a1.59,1.59,0,0,1-.48-1.18V17.65H97.31a1.64,1.64,0,0,1-1.2-.48,1.68,1.68,0,0,1,0-2.35,1.64,1.64,0,0,1,1.2-.48h2.58V2.91a1.58,1.58,0,0,1,.48-1.18,1.64,1.64,0,0,1,2.32,0l0,0a1.61,1.61,0,0,1,.48,1.18V14.3Z"/><path class="cls-1" d="M111.31,31.48a10,10,0,0,1,3.23-16.38,9.94,9.94,0,0,1,3.95-.81,9.75,9.75,0,0,1,7.15,3,10,10,0,0,1,2.16,3.2,9.66,9.66,0,0,1,.8,3.93A1.64,1.64,0,0,1,126.93,26h-15a6.51,6.51,0,0,0,2.4,3.58,6.65,6.65,0,0,0,4.2,1.45,7.29,7.29,0,0,0,5.73-2.27,1.52,1.52,0,0,1,1.14-.55A1.64,1.64,0,0,1,126.72,31h0a10.39,10.39,0,0,1-8.21,3.39,9.84,9.84,0,0,1-7.17-2.94M125,22.72a6.79,6.79,0,0,0-13.16,0Z"/><path class="cls-1" d="M73.13,40.52H54a1.51,1.51,0,0,1,0-2.12l8.52-10.81a1.5,1.5,0,0,1,2.13,0L73.13,38.4a1.51,1.51,0,0,1,0,2.12"/></g></g></svg>